<svg width="103" height="54" viewBox="0 0 103 54" fill="none" xmlns="http://www.w3.org/2000/svg">
<path d="M11.2456 0.670898H15.3838V53.1855H9.74414V11.1812H0.00292969V7.81201C1.71191 7.76318 3.25 7.48242 4.61719 6.96973C5.98438 6.43262 7.0708 5.83447 7.87646 5.17529C8.68213 4.4917 9.34131 3.80811 9.854 3.12451C10.3911 2.44092 10.7573 1.87939 10.9526 1.43994L11.2456 0.670898ZM57.7178 36.6694H64.4561V41.9429H57.7178V53.1855H52.0781V41.9429H25.4546V35.5708L50.6133 0.670898H57.7178V36.6694ZM52.0781 36.6694V7.04297L30.728 36.6694H52.0781ZM88.8457 47.9487H83.9751V33.7031H70.0957V28.7959H83.9751V14.5503H88.8457V28.7959H102.725V33.7031H88.8457V47.9487Z" fill="#F2353F"/>
</svg>
