<svg width="104" height="55" viewBox="0 0 104 55" fill="none" xmlns="http://www.w3.org/2000/svg">
<path d="M11.2456 1.6709H15.3838V54.1855H9.74414V12.1812H0.00292969V8.81201C1.71191 8.76318 3.25 8.48242 4.61719 7.96973C5.98438 7.43262 7.0708 6.83447 7.87646 6.17529C8.68213 5.4917 9.34131 4.80811 9.854 4.12451C10.3911 3.44092 10.7573 2.87939 10.9526 2.43994L11.2456 1.6709ZM38.2354 21.0068C40.0176 22.6182 42.3857 23.4238 45.3398 23.4238C48.2939 23.4238 50.6499 22.6182 52.4077 21.0068C54.1899 19.3711 55.0811 17.3081 55.0811 14.8179C55.0811 12.3032 54.1899 10.2402 52.4077 8.62891C50.6499 6.99316 48.2939 6.17529 45.3398 6.17529C42.3857 6.17529 40.0176 6.99316 38.2354 8.62891C36.4775 10.2402 35.5986 12.3032 35.5986 14.8179C35.5986 17.3081 36.4775 19.3711 38.2354 21.0068ZM34.4634 5.1499C37.4663 2.34229 41.0918 0.938477 45.3398 0.938477C49.5879 0.938477 53.2134 2.34229 56.2163 5.1499C59.2192 7.93311 60.7207 11.1558 60.7207 14.8179C60.7207 16.2583 60.4766 17.6377 59.9883 18.9561C59.5244 20.25 58.9629 21.2876 58.3037 22.0688C57.6689 22.8257 57.022 23.4971 56.3628 24.083C55.728 24.6445 55.1787 25.0596 54.7148 25.3281L53.9824 25.6943C54.2266 25.792 54.5439 25.9263 54.9346 26.0972C55.3496 26.2681 56.0698 26.7319 57.0952 27.4888C58.1206 28.2456 59.0239 29.0757 59.8052 29.979C60.6108 30.8579 61.3311 32.103 61.9658 33.7144C62.625 35.3013 62.9546 36.998 62.9546 38.8047C62.9546 43.1992 61.27 46.9834 57.9009 50.1572C54.5317 53.3311 50.3447 54.918 45.3398 54.918C40.335 54.918 36.1479 53.3311 32.7788 50.1572C29.4097 46.9834 27.7251 43.1992 27.7251 38.8047C27.7251 36.998 28.0303 35.3135 28.6406 33.751C29.2754 32.1641 30.0322 30.9067 30.9111 29.979C31.79 29.0269 32.6567 28.209 33.5112 27.5254C34.3901 26.8418 35.1592 26.3779 35.8184 26.1338L36.7339 25.6943C36.5386 25.5967 36.2822 25.4746 35.9648 25.3281C35.6719 25.1572 35.1348 24.7666 34.3535 24.1562C33.5723 23.5215 32.8765 22.8257 32.2661 22.0688C31.6802 21.2876 31.1431 20.25 30.6548 18.9561C30.1909 17.6377 29.959 16.2583 29.959 14.8179C29.959 11.1558 31.4604 7.93311 34.4634 5.1499ZM53.7993 31.2241C51.4556 29.0269 48.6357 27.9282 45.3398 27.9282C42.0439 27.9282 39.2119 29.0269 36.8438 31.2241C34.5 33.4214 33.3281 35.9482 33.3281 38.8047C33.3281 41.7588 34.4268 44.3101 36.624 46.4585C38.8457 48.6069 41.751 49.6812 45.3398 49.6812C48.9531 49.6812 51.8584 48.6069 54.0557 46.4585C56.2529 44.3101 57.3516 41.7588 57.3516 38.8047C57.3516 35.9482 56.1675 33.4214 53.7993 31.2241ZM89.2119 48.9487H84.3413V34.7031H70.4619V29.7959H84.3413V15.5503H89.2119V29.7959H103.091V34.7031H89.2119V48.9487Z" fill="#F2353F"/>
</svg>
