<svg width="169" height="55" viewBox="0 0 169 55" fill="none" xmlns="http://www.w3.org/2000/svg">
<path d="M33.7676 54.1855H0.00292969C0.00292969 50.7432 0.69873 47.5938 2.09033 44.7373C3.50635 41.8809 5.25195 39.5859 7.32715 37.8525C9.40234 36.0947 11.6484 34.3369 14.0654 32.5791C16.4824 30.8213 18.7285 29.2588 20.8037 27.8916C22.8789 26.5244 24.6123 24.8276 26.0039 22.8013C27.4199 20.7749 28.1279 18.6143 28.1279 16.3193C28.1279 13.2676 27.127 10.814 25.125 8.9585C23.123 7.10303 20.3765 6.17529 16.8853 6.17529C15.1274 6.17529 13.5283 6.49268 12.0879 7.12744C10.6719 7.73779 9.57324 8.48242 8.79199 9.36133C8.03516 10.2402 7.40039 11.1191 6.8877 11.998C6.39941 12.877 6.05762 13.6338 5.8623 14.2686L5.64258 15.1841L0.735352 12.9502C0.78418 12.6084 0.894043 12.1689 1.06494 11.6318C1.26025 11.0947 1.74854 10.1426 2.52979 8.77539C3.33545 7.4082 4.27539 6.19971 5.34961 5.1499C6.42383 4.1001 7.98633 3.13574 10.0371 2.25684C12.0879 1.37793 14.3706 0.938477 16.8853 0.938477C21.8901 0.938477 25.9551 2.40332 29.0801 5.33301C32.2051 8.2627 33.7676 11.9248 33.7676 16.3193C33.7676 18.8584 33.1816 21.2144 32.0098 23.3872C30.8623 25.5601 29.4097 27.3911 27.6519 28.8804C25.9185 30.3452 23.9531 31.8833 21.7559 33.4946C19.5586 35.0815 17.4712 36.5586 15.4937 37.9258C13.5161 39.2686 11.6729 40.9043 9.96387 42.833C8.2793 44.7617 7.08301 46.8003 6.375 48.9487H33.7676V54.1855ZM61.4897 20.4209C66.5435 20.4209 70.7427 22.0811 74.0874 25.4014C77.4321 28.6973 79.1045 32.7866 79.1045 37.6694C79.1045 42.772 77.4565 46.9224 74.1606 50.1206C70.8647 53.3188 66.519 54.918 61.1235 54.918C58.9751 54.918 56.8999 54.6494 54.8979 54.1123C52.896 53.5508 51.248 52.9038 49.9541 52.1714C48.6846 51.4146 47.5615 50.6455 46.585 49.8643C45.6084 49.083 44.9248 48.4238 44.5342 47.8867L43.875 47.0444L47.6104 43.3091C47.708 43.4556 47.8789 43.6875 48.123 44.0049C48.3916 44.2979 48.9409 44.8105 49.771 45.543C50.6255 46.251 51.5288 46.8979 52.481 47.4839C53.4331 48.0454 54.6782 48.5581 56.2163 49.022C57.7788 49.4614 59.4146 49.6812 61.1235 49.6812C64.8833 49.6812 67.8862 48.5825 70.1323 46.3853C72.3784 44.188 73.5015 41.2827 73.5015 37.6694C73.5015 34.1294 72.3784 31.2485 70.1323 29.0269C67.9106 26.8052 65.0298 25.6943 61.4897 25.6943C59.146 25.6943 56.9976 26.1704 55.0444 27.1226C53.0913 28.0747 51.7363 28.9902 50.9795 29.8691L49.8442 31.2974H45.7427L47.6104 1.6709H75.7354V6.94434H52.481L51.3457 23.4238C51.6387 23.2285 52.0537 22.96 52.5908 22.6182C53.1279 22.252 54.2632 21.8003 55.9966 21.2632C57.7544 20.7017 59.5854 20.4209 61.4897 20.4209ZM96.4102 11.9614C93.3828 15.8188 91.8691 21.1533 91.8691 27.9648C91.8691 34.752 93.3828 40.0742 96.4102 43.9316C99.4375 47.7646 103.075 49.6812 107.323 49.6812C111.522 49.6812 115.124 47.7524 118.126 43.895C121.129 40.0132 122.631 34.6909 122.631 27.9282C122.631 21.1167 121.117 15.7944 118.09 11.9614C115.062 8.104 111.449 6.17529 107.25 6.17529C103.051 6.17529 99.4375 8.104 96.4102 11.9614ZM122.045 8.37256C126.195 13.3042 128.271 19.8228 128.271 27.9282C128.271 36.0337 126.208 42.5645 122.082 47.5205C117.956 52.4521 113.036 54.918 107.323 54.918C101.562 54.918 96.6055 52.4521 92.4551 47.5205C88.3291 42.5645 86.2661 36.0337 86.2661 27.9282C86.2661 19.8228 88.3413 13.3042 92.4917 8.37256C96.6421 3.4165 101.562 0.938477 107.25 0.938477C112.963 0.938477 117.895 3.4165 122.045 8.37256ZM154.491 48.9487H149.621V34.7031H135.741V29.7959H149.621V15.5503H154.491V29.7959H168.371V34.7031H154.491V48.9487Z" fill="#F2353F"/>
</svg>
