<svg width="74" height="55" viewBox="0 0 74 55" fill="none" xmlns="http://www.w3.org/2000/svg">
<path d="M25.7588 26.4268C26.0029 26.4756 26.3447 26.5854 26.7842 26.7563C27.248 26.9028 28.0415 27.3057 29.1646 27.9648C30.2876 28.5996 31.2764 29.3564 32.1309 30.2354C32.9854 31.1143 33.7544 32.3838 34.438 34.0439C35.146 35.6797 35.5 37.5229 35.5 39.5737C35.5 43.7241 33.8765 47.3252 30.6294 50.377C27.3823 53.4043 23.1343 54.918 17.8853 54.918C15.6392 54.918 13.5029 54.6494 11.4766 54.1123C9.4502 53.5508 7.77783 52.9038 6.45947 52.1714C5.16553 51.4146 4.01807 50.6455 3.01709 49.8643C2.01611 49.083 1.2959 48.4238 0.856445 47.8867L0.233887 47.0444L4.00586 43.3091C4.10352 43.4556 4.27441 43.6875 4.51855 44.0049C4.7627 44.2979 5.31201 44.8105 6.1665 45.543C7.021 46.251 7.94873 46.8979 8.94971 47.4839C9.95068 48.0454 11.2446 48.5581 12.8315 49.022C14.4429 49.4614 16.1274 49.6812 17.8853 49.6812C21.6938 49.6812 24.709 48.7168 26.9307 46.7881C29.1523 44.8594 30.2632 42.4546 30.2632 39.5737C30.2632 36.7661 29.1157 34.3735 26.8208 32.396C24.5503 30.4185 21.5718 29.4297 17.8853 29.4297H12.6118V24.1929H17.8853C21.0347 24.1929 23.5005 23.3506 25.2827 21.666C27.0894 19.957 27.9927 17.6743 27.9927 14.8179C27.9927 12.3276 27.0771 10.2646 25.2461 8.62891C23.4395 6.99316 20.9858 6.17529 17.8853 6.17529C16.4448 6.17529 15.0288 6.38281 13.6372 6.79785C12.27 7.18848 11.1348 7.68896 10.2314 8.29932C9.32812 8.88525 8.53467 9.4834 7.85107 10.0938C7.19189 10.6797 6.70361 11.1802 6.38623 11.5952L5.87354 12.1812L2.13818 8.04297C2.28467 7.84766 2.49219 7.59131 2.76074 7.27393C3.0293 6.95654 3.65186 6.39502 4.62842 5.58936C5.60498 4.78369 6.65479 4.07568 7.77783 3.46533C8.90088 2.83057 10.3779 2.25684 12.209 1.74414C14.04 1.20703 15.9321 0.938477 17.8853 0.938477C22.4751 0.938477 26.2471 2.29346 29.2012 5.00342C32.1553 7.68896 33.6323 10.9604 33.6323 14.8179C33.6323 16.5269 33.3516 18.0771 32.79 19.4688C32.2529 20.8604 31.5938 21.9712 30.8125 22.8013C30.0312 23.6313 29.2622 24.3394 28.5054 24.9253C27.7729 25.4868 27.126 25.8896 26.5645 26.1338L25.7588 26.4268ZM40.6636 1.6709H73.6958V6.94434L50.4414 54.1855H44.8018L68.0562 6.94434H40.6636V1.6709Z" fill="#F2353F"/>
</svg>
