<svg aria-hidden="true" style="position: absolute; width: 0; height: 0; overflow: hidden;" version="1.1"
    xmlns="http://www.w3.org/2000/svg" xmlns:xlink="http://www.w3.org/1999/xlink">
    <defs>
        <symbol id="icon-t-shirt" viewBox="0 0 32 32">
            <path
                d="M19.12 16.059c0 0 0 0 0 0 0.84 0 1.521-0.681 1.521-1.521v-1.425h-3.042v1.425c0 0.84 0.681 1.521 1.521 1.521 0 0 0 0 0 0h-0z">
            </path>
            <path
                d="M10.965 4.285l-0.096 0.031c-1.838 0.594-5.445 1.776-7.198 2.351l-0.094 0.031c-0.533 0.179-0.911 0.674-0.911 1.257 0 0.002 0 0.005 0 0.007v-0 4.955c0 0 0 0 0 0 0 0.736 0.597 1.333 1.333 1.333 0.115 0 0.226-0.014 0.332-0.042l-0.009 0.002 3.677-0.919v13.418c0 0 0 0 0 0 0 0.736 0.597 1.333 1.333 1.333 0 0 0 0 0 0h13.333c0 0 0 0 0 0 0.736 0 1.333-0.597 1.333-1.333 0-0 0-0 0-0v0-13.418l3.677 0.919c0.841 0.21 1.656-0.426 1.656-1.294v-4.955c0-0.576-0.363-1.084-0.912-1.264-1.714-0.562-5.419-1.776-7.29-2.382l-0.096-0.031c-0.61-0.197-1.003-0.322-1.033-0.327h-0.002c0 0.393-0.057 0.773-0.162 1.131l-0.004 0.012c-0.509 1.666-2.032 2.857-3.834 2.857s-3.326-1.191-3.827-2.829l-0.007-0.028-0.004-0.012c-0.103-0.337-0.162-0.725-0.162-1.126 0-0.002 0-0.003 0-0.005v0h-0.002c-0.030 0.005-0.423 0.13-1.033 0.327zM22.976 6.118c1.811 0.591 3.916 1.281 5.089 1.665 0.073 0.024 0.125 0.092 0.125 0.172 0 0.002-0 0.005-0 0.007v-0 4.955c0 0.125-0.116 0.215-0.235 0.185l-5.098-1.274v14.882c0 0.106-0.085 0.191-0.191 0.191h-13.334c0 0 0 0 0 0-0.105 0-0.19-0.085-0.19-0.19 0-0 0-0 0-0v0-14.882l-5.098 1.274c-0.014 0.003-0.029 0.005-0.045 0.005-0.105 0-0.19-0.085-0.19-0.19v0-4.955c0-0.089 0.052-0.154 0.124-0.178l0.094-0.031c1.19-0.39 3.232-1.059 4.996-1.634 0.769-0.251 1.485-0.484 2.053-0.668 0.64 2.113 2.602 3.651 4.923 3.651s4.283-1.538 4.923-3.651c0.568 0.184 1.284 0.417 2.053 0.668z">
            </path>
        </symbol>
        <symbol id="icon-box" viewBox="0 0 32 32">
            <path
                d="M16.197 3.409l12.235 8.117c0.107 0.069 0.177 0.187 0.177 0.322v8.24c0 0.001 0 0.001 0 0.002 0 0.080-0.025 0.154-0.068 0.214l-0 0c-0.029 0.043-0.066 0.078-0.109 0.105l-0.002 0.001-0.006 0.003-12.237 8.121c-0.057 0.040-0.128 0.063-0.204 0.063-0.002 0-0.004-0-0.006-0h0c-0.001 0-0.001 0-0.002 0-0.077 0-0.149-0.024-0.208-0.065l0.001 0.001-0.005-0.003-12.223-8.112c-0.128-0.085-0.19-0.188-0.19-0.342v-8.227c-0-0.002-0-0.004-0-0.006 0-0.076 0.023-0.146 0.063-0.204l-0.001 0.001c0.028-0.042 0.063-0.076 0.104-0.103l0.012-0.007 12.241-8.124c0.104-0.072 0.314-0.073 0.421 0.001l0.005 0.003zM22.065 15.488l5.487-3.641-11.198-7.429v7.229l5.711 3.841zM15.605 11.648v-7.229l-11.195 7.43 5.484 3.639 5.711-3.84zM9.22 15.944l-5.113-3.394v6.834l5.113-3.44zM4.405 20.090l11.2 7.43v-7.337l-5.708-3.788-5.492 3.696zM10.574 15.938l5.404 3.59 5.409-3.59-5.409-3.637-5.404 3.637zM16.356 20.181v7.339l11.198-7.431-5.488-3.696-5.71 3.787zM22.742 15.944l5.114 3.439v-6.832l-5.115 3.394z">
            </path>
        </symbol>
        <symbol id="icon-all-services" viewBox="0 0 32 32">
            <path
                d="M25.324 16.556h-20.547v-1.112h20.547l-7.835-7.835 0.786-0.786 9.177 9.177-9.178 9.177-0.786-0.786 7.834-7.834z">
            </path>
        </symbol>
        <symbol id="icon-bussvg" viewBox="0 0 32 32">
            <path
                d="M11.223 20.667c0 0.675-0.547 1.223-1.223 1.223s-1.223-0.547-1.223-1.223v0c0-0.675 0.547-1.223 1.223-1.223s1.223 0.547 1.223 1.223v0zM23.223 20.667c0 0.675-0.547 1.223-1.223 1.223s-1.223-0.547-1.223-1.223v0c0-0.675 0.547-1.223 1.223-1.223s1.223 0.547 1.223 1.223v0z">
            </path>
            <path
                d="M27.228 8v3.34l0.703 0.067c0.136 0.013 0.262 0.044 0.363 0.099 0.085 0.048 0.169 0.12 0.23 0.267 0.032 0.079 0.046 0.165 0.039 0.254l-0.002 0.028v2.612c0 0.307-0.249 0.556-0.556 0.556h-0.777v8.777c0 0.689-0.378 1.294-0.952 1.627l-0.387 0.225v2.149c0 0.308-0.248 0.556-0.556 0.556h-1.333c-0 0-0.001 0-0.001 0-0.306 0-0.555-0.248-0.555-0.555 0-0 0-0.001 0-0.001v0-2.11h-14.887v2.11c0 0.308-0.248 0.556-0.556 0.556h-1.333c-0 0-0.001 0-0.001 0-0.306 0-0.555-0.248-0.555-0.555 0-0 0-0.001 0-0.001v0-2.151l-0.384-0.225c-0.569-0.334-0.944-0.937-0.944-1.623v-8.778h-0.782c-0 0-0 0-0 0-0.307 0-0.556-0.249-0.556-0.556 0-0 0-0 0-0v0-2.667c0-0.292 0.223-0.532 0.512-0.555h0.001l0.019-0.001 0.066-0.003 0.741-0.034v-3.406c0-2.512 2.044-4.556 4.556-4.556h13.334c2.512 0 4.556 2.044 4.556 4.556zM5.895 24.777h20.216v-1.737l0.007-6.484h-20.223v8.221zM5.895 15.444h9.554v-6.888h-9.554v6.888zM16.561 15.444h9.554v-6.888h-9.554v6.888zM5.69 7.444h20.631l-0.681-1.169c-0.592-1.016-1.691-1.719-2.967-1.719h-13.334c-1.275 0-2.375 0.703-2.967 1.719l-0.682 1.169z">
            </path>
        </symbol>
        <symbol id="icon-copy-altsvg" viewBox="0 0 32 32">
            <path d="M8.777 16.777h6.446v1.112h-6.446v-1.112zM8.777 22.111h6.446v1.112h-6.446v-1.112z"></path>
            <path
                d="M26.666 20.556h-6.11v6.11c-0.002 1.043-0.847 1.888-1.89 1.89h-13.333c-1.043-0.002-1.888-0.847-1.89-1.89v-13.333c0.002-1.043 0.846-1.888 1.889-1.89h6.111v-6.111c0.002-1.043 0.847-1.888 1.889-1.889h13.334c1.043 0.002 1.888 0.846 1.89 1.889v13.334c-0.002 1.043-0.847 1.888-1.89 1.89h-0zM4.556 12.556v14.887h14.89l-0.003-14.888h-14.887zM20.556 19.444h6.887v-14.887h-14.887v6.887h6.11c1.043 0.002 1.888 0.846 1.89 1.889v6.111z">
            </path>
        </symbol>
        <symbol id="icon-Group" viewBox="0 0 32 32">
            <path opacity="0.15"
                d="M32 16c0 8.837-7.163 16-16 16s-16-7.163-16-16c0-8.837 7.163-16 16-16s16 7.163 16 16z"></path>
            <path
                d="M24.131 16c0 4.491-3.64 8.131-8.131 8.131s-8.131-3.64-8.131-8.131c0-4.491 3.64-8.131 8.131-8.131s8.131 3.64 8.131 8.131z">
            </path>
            <path
                d="M19.41 16c0 1.883-1.527 3.41-3.41 3.41s-3.41-1.527-3.41-3.41c0-1.883 1.527-3.41 3.41-3.41s3.41 1.527 3.41 3.41z">
            </path>
        </symbol>
        <symbol id="icon-internal-advertising" viewBox="0 0 32 32">
            <path d="M8.777 16.777h3.779v1.112h-3.779v-1.112z">
            </path>
            <path
                d="M26.666 23.223h-6.887l2.866 3.822-0.89 0.667-3.367-4.489h-4.777l-3.367 4.489-0.89-0.667 2.866-3.822h-6.888c-1.043-0.002-1.888-0.847-1.889-1.889v-14.667c0.002-1.043 0.847-1.888 1.889-1.889h21.334c1.043 0.002 1.888 0.847 1.89 1.89v14.667c-0.002 1.043-0.847 1.888-1.89 1.889h-0zM4.556 5.89v16.221h22.889l-0.002-16.221h-22.887z">
            </path>
        </symbol>
        <symbol id="icon-reklam-around" viewBox="0 0 32 32">
            <path d="M24.236 10.934h-5.874v-1.189h5.874v1.189z">
            </path>
            <path
                d="M8.188 25.99v-5.145h-2.641c-1.043-0.002-1.888-0.847-1.889-1.889v-10.248c0-1.776 1.447-3.223 3.223-3.223h18.666c1.776 0 3.223 1.447 3.223 3.223v10.248c-0.002 1.043-0.847 1.888-1.889 1.889h-2.644v5.145c0 0.491-0.401 0.891-0.891 0.891h-14.266c-0.492-0.001-0.89-0.4-0.891-0.891v-0zM24.236 15.063v4.67h3.421v-11.024c-0.001-1.165-0.945-2.11-2.111-2.111h-18.667c-1.165 0.001-2.11 0.945-2.111 2.111v11.025h3.418v-4.671c0-0.491 0.4-0.892 0.891-0.892h14.265c0.491 0 0.891 0.4 0.891 0.891zM9.217 15.2v10.653h13.992l-0.002-10.653h-13.99z">
            </path>
            <path d="M13.927 20.785l1.143 1.524 2.286-3.048 2.971 3.962h-8.229l1.829-2.438z"></path>
        </symbol>
        <symbol id="icon-souvenir" viewBox="0 0 32 32">
            <path d="M8.777 10.111h0.902v11.779h-0.902v-11.779zM16.965 10.111h0.924v11.779h-0.923v-11.779z"></path>
            <path
                d="M23.223 5.333v3.444h3.444c1.043 0.002 1.888 0.847 1.89 1.89v10.667c-0.002 1.043-0.847 1.888-1.89 1.889h-3.444v2.111c0 1.776-1.447 3.223-3.223 3.223h-13.334c-1.776 0-3.223-1.447-3.223-3.223v-20c0-0.307 0.249-0.556 0.556-0.556h18.666c0.308 0 0.556 0.249 0.556 0.556zM22.111 25.334v-19.444h-17.554v19.444c0.001 1.165 0.945 2.109 2.11 2.11h13.334c1.165-0.001 2.11-0.945 2.111-2.11v-0zM23.223 22.111h4.221v-12.221h-4.221v12.221z">
            </path>
        </symbol>
    </defs>
</svg>