<svg width="103" height="53" fill="none" xmlns="http://www.w3.org/2000/svg"><path d="M11.246.485h4.138V53h-5.64V10.996H.003v-3.37c1.709-.048 3.247-.33 4.614-.842 1.367-.537 2.454-1.135 3.26-1.794.805-.684 1.464-1.367 1.977-2.051.537-.684.903-1.245 1.099-1.685l.293-.769zm46.472 35.999h6.738v5.273h-6.738V53h-5.64V41.757H25.455v-6.372L50.613.485h7.105v35.999zm-5.64 0V6.857l-21.35 29.627h21.35zm36.768 11.28h-4.87V33.517h-13.88V28.61h13.88V14.365h4.87V28.61h13.879v4.908h-13.88v14.245z" fill="#F2353F"/></svg>