<svg width="104" height="55" fill="none" xmlns="http://www.w3.org/2000/svg"><path d="M11.246 1.485h4.138V54h-5.64V11.996H.003v-3.37c1.709-.048 3.247-.33 4.614-.842 1.367-.537 2.454-1.135 3.26-1.794.805-.684 1.464-1.367 1.977-2.051.537-.684.903-1.245 1.099-1.685l.293-.769zm26.99 19.336c1.782 1.612 4.15 2.417 7.104 2.417 2.954 0 5.31-.805 7.068-2.417 1.782-1.636 2.673-3.698 2.673-6.189 0-2.514-.891-4.577-2.673-6.189C50.65 6.808 48.294 5.99 45.34 5.99c-2.954 0-5.322.818-7.105 2.453-1.758 1.612-2.636 3.675-2.636 6.19 0 2.49.879 4.553 2.636 6.188zM34.462 4.964C37.466 2.157 41.092.753 45.34.753c4.248 0 7.873 1.404 10.876 4.211 3.003 2.784 4.505 6.006 4.505 9.668 0 1.44-.244 2.82-.733 4.138-.464 1.294-1.025 2.332-1.684 3.113a19.175 19.175 0 01-1.941 2.015c-.635.561-1.184.976-1.648 1.245l-.733.366c.245.097.562.232.953.403.415.17 1.135.634 2.16 1.391a16.584 16.584 0 012.71 2.49c.806.88 1.526 2.125 2.16 3.736.66 1.587.99 3.283.99 5.09 0 4.395-1.685 8.179-5.054 11.353-3.37 3.173-7.556 4.76-12.561 4.76s-9.192-1.587-12.561-4.76c-3.37-3.174-5.054-6.958-5.054-11.353 0-1.806.305-3.491.916-5.054.634-1.586 1.391-2.844 2.27-3.771a23.845 23.845 0 012.6-2.454c.88-.684 1.648-1.148 2.307-1.392l.916-.44a28.31 28.31 0 00-.77-.365c-.292-.171-.83-.562-1.61-1.172a14.068 14.068 0 01-2.088-2.088c-.586-.78-1.123-1.819-1.611-3.113a12.375 12.375 0 01-.696-4.138c0-3.662 1.501-6.884 4.504-9.668zM53.8 31.04c-2.343-2.198-5.163-3.296-8.46-3.296-3.295 0-6.127 1.098-8.495 3.296-2.344 2.197-3.516 4.724-3.516 7.58 0 2.954 1.099 5.505 3.296 7.654 2.222 2.148 5.127 3.223 8.716 3.223 3.613 0 6.518-1.075 8.716-3.223 2.197-2.149 3.296-4.7 3.296-7.654 0-2.856-1.184-5.383-3.553-7.58zm35.413 17.724h-4.87V34.518h-13.88V29.61h13.88V15.365h4.87V29.61h13.879v4.908h-13.88v14.245z" fill="#F2353F"/></svg>