<svg width="169" height="55" fill="none" xmlns="http://www.w3.org/2000/svg"><path d="M33.768 54H.003c0-3.442.696-6.592 2.087-9.448 1.416-2.857 3.162-5.152 5.237-6.885a115.822 115.822 0 016.738-5.273 178.43 178.43 0 016.739-4.688 18.773 18.773 0 005.2-5.09c1.416-2.027 2.124-4.187 2.124-6.482 0-3.052-1.001-5.506-3.003-7.361-2.002-1.856-4.748-2.783-8.24-2.783-1.758 0-3.357.317-4.797.952-1.416.61-2.515 1.355-3.296 2.234a17.835 17.835 0 00-1.904 2.636c-.489.88-.83 1.636-1.026 2.271l-.22.915-4.907-2.233c.05-.342.159-.782.33-1.319.195-.537.684-1.489 1.465-2.856a17.357 17.357 0 012.82-3.626c1.074-1.05 2.636-2.014 4.687-2.893 2.05-.879 4.334-1.318 6.848-1.318 5.005 0 9.07 1.465 12.195 4.394 3.125 2.93 4.688 6.592 4.688 10.987 0 2.539-.586 4.895-1.758 7.068-1.148 2.172-2.6 4.004-4.358 5.493a109.357 109.357 0 01-5.896 4.614 374.157 374.157 0 01-6.262 4.431c-1.978 1.343-3.821 2.979-5.53 4.907-1.685 1.93-2.881 3.968-3.589 6.116h27.393V54zM61.49 20.235c5.053 0 9.253 1.66 12.597 4.98 3.345 3.297 5.017 7.386 5.017 12.269 0 5.102-1.647 9.253-4.943 12.451-3.296 3.198-7.642 4.797-13.038 4.797-2.148 0-4.223-.268-6.225-.805-2.002-.562-3.65-1.209-4.944-1.941a29.902 29.902 0 01-3.369-2.307c-.977-.782-1.66-1.44-2.05-1.978l-.66-.842 3.735-3.736c.098.147.269.379.513.696.269.293.818.806 1.648 1.538a23.748 23.748 0 002.71 1.941c.952.562 2.197 1.075 3.735 1.538 1.563.44 3.199.66 4.907.66 3.76 0 6.763-1.099 9.01-3.296 2.245-2.198 3.368-5.103 3.368-8.716 0-3.54-1.123-6.421-3.369-8.643-2.221-2.221-5.102-3.332-8.642-3.332-2.344 0-4.492.476-6.446 1.428-1.953.952-3.308 1.868-4.064 2.747l-1.136 1.428h-4.101L47.61 1.485h28.125V6.76H52.481l-1.135 16.48c.293-.196.708-.465 1.245-.806.537-.367 1.672-.818 3.406-1.355a17.942 17.942 0 015.493-.843zm34.92-8.46c-3.027 3.858-4.54 9.193-4.54 16.004 0 6.787 1.513 12.11 4.54 15.967 3.028 3.833 6.665 5.75 10.913 5.75 4.199 0 7.801-1.93 10.803-5.787 3.003-3.881 4.505-9.204 4.505-15.966 0-6.812-1.514-12.134-4.541-15.967-3.028-3.858-6.641-5.786-10.84-5.786s-7.813 1.928-10.84 5.786zm25.635-3.588c4.15 4.932 6.226 11.45 6.226 19.556 0 8.105-2.063 14.636-6.189 19.592-4.126 4.932-9.046 7.397-14.759 7.397-5.761 0-10.717-2.465-14.868-7.397-4.126-4.956-6.189-11.487-6.189-19.592 0-8.106 2.075-14.624 6.226-19.556 4.15-4.956 9.07-7.434 14.758-7.434 5.713 0 10.645 2.478 14.795 7.434zm32.446 40.576h-4.87V34.518h-13.88V29.61h13.88V15.365h4.87V29.61h13.88v4.908h-13.88v14.245z" fill="#F2353F"/></svg>