<svg width="74" height="55" fill="none" xmlns="http://www.w3.org/2000/svg"><path d="M25.759 26.241c.244.049.586.159 1.025.33.464.146 1.258.55 2.38 1.208a13.093 13.093 0 012.967 2.27c.854.88 1.623 2.15 2.307 3.81.708 1.635 1.062 3.478 1.062 5.53 0 4.15-1.623 7.75-4.87 10.802-3.248 3.028-7.496 4.541-12.745 4.541-2.246 0-4.382-.268-6.408-.805-2.027-.562-3.7-1.209-5.018-1.941a31.183 31.183 0 01-3.442-2.307c-1-.782-1.721-1.44-2.16-1.978l-.623-.842 3.772-3.736c.098.147.268.379.513.696.244.293.793.806 1.647 1.538a20.896 20.896 0 002.784 1.941c1 .562 2.295 1.075 3.882 1.538 1.61.44 3.295.66 5.053.66 3.809 0 6.824-.965 9.046-2.894 2.221-1.928 3.332-4.333 3.332-7.214 0-2.807-1.147-5.2-3.442-7.178-2.27-1.977-5.25-2.966-8.936-2.966h-5.273v-5.237h5.273c3.15 0 5.615-.842 7.398-2.527 1.806-1.709 2.71-3.991 2.71-6.848 0-2.49-.916-4.553-2.747-6.189-1.806-1.635-4.26-2.453-7.36-2.453-1.441 0-2.857.207-4.249.622-1.367.39-2.502.891-3.406 1.502a19.518 19.518 0 00-2.38 1.794c-.66.586-1.147 1.087-1.465 1.502l-.512.586-3.736-4.139c.147-.195.354-.451.623-.769.268-.317.89-.879 1.867-1.684a19.772 19.772 0 013.15-2.124c1.123-.635 2.6-1.209 4.431-1.721a20.061 20.061 0 015.676-.806c4.59 0 8.362 1.355 11.316 4.065 2.954 2.685 4.431 5.957 4.431 9.814 0 1.71-.28 3.26-.842 4.651-.537 1.392-1.196 2.503-1.977 3.333-.782.83-1.55 1.538-2.308 2.124-.732.561-1.379.964-1.94 1.208l-.806.293zM40.664 1.485h33.032V6.76L50.44 54h-5.64L68.057 6.759H40.664V1.485z" fill="#F2353F"/></svg>